<svg width="40" height="36" viewBox="0 0 40 36" fill="none" xmlns="http://www.w3.org/2000/svg">
<g id="logo?">
<g id="Vector 5">
<path d="M18.2339 26.8736C19.0374 27.0248 20.1988 26.337 20.3092 25.752L20.3154 25.7091C20.3184 25.6789 20.3185 25.649 20.3154 25.6196C20.3154 25.6196 20.8792 27.0581 22.0683 26.6683C22.0683 26.6683 22.3969 28.0845 22.0683 28.3584C21.7396 28.6323 20.5345 28.3584 20.5345 28.3584L20.3154 25.7091C20.314 25.7233 20.3119 25.7376 20.3092 25.752L19.932 28.3584C19.932 28.3584 18.6173 28.6871 18.2339 28.3584C17.8504 28.0298 18.2339 26.8736 18.2339 26.8736Z" fill="white"/>
<path d="M17.3574 26.1126C17.3574 26.1126 17.8519 26.8017 18.2339 26.8736M22.9447 26.1126C22.631 26.4061 22.3378 26.5799 22.0683 26.6683M18.2339 26.8736C19.0991 27.0364 20.3791 26.2265 20.3154 25.6196C20.3154 25.6196 20.8792 27.0581 22.0683 26.6683M18.2339 26.8736C18.2339 26.8736 17.8504 28.0298 18.2339 28.3584C18.6173 28.6871 19.932 28.3584 19.932 28.3584L20.3154 25.7091L20.5345 28.3584C20.5345 28.3584 21.7396 28.6323 22.0683 28.3584C22.3969 28.0845 22.0683 26.6683 22.0683 26.6683" stroke="white" stroke-width="2" stroke-linecap="round"/>
</g>
<path id="Vector 1" d="M15.3306 4.91377C13.6873 4.91377 4.97771 8.03608 1.41718 20.6349C-1.43124 30.7139 11.0032 33.964 17.5765 34.3292H25.1358C29.8466 33.5258 37.5064 30.7128 38.3371 24.6336C39.5422 15.8144 28.1485 3.54431 24.4784 4.91374" stroke="white" stroke-width="2"/>
<path id="Subtract" fill-rule="evenodd" clip-rule="evenodd" d="M29.4084 17.403C30.7395 17.403 31.8186 16.2994 31.8186 14.938C31.8186 13.5766 30.7395 12.473 29.4084 12.473C28.0773 12.473 26.9982 13.5766 26.9982 14.938C26.9982 16.2994 28.0773 17.403 29.4084 17.403ZM28.532 14.9927C29.016 14.9927 29.4084 14.6004 29.4084 14.1163C29.4084 13.6323 29.016 13.2399 28.532 13.2399C28.0479 13.2399 27.6555 13.6323 27.6555 14.1163C27.6555 14.6004 28.0479 14.9927 28.532 14.9927Z" fill="white"/>
<path id="Subtract_2" fill-rule="evenodd" clip-rule="evenodd" d="M10.7841 17.403C9.45296 17.403 8.37387 16.2994 8.37387 14.938C8.37387 13.5766 9.45296 12.473 10.7841 12.473C12.1152 12.473 13.1943 13.5766 13.1943 14.938C13.1943 16.2994 12.1152 17.403 10.7841 17.403ZM11.6606 14.9927C11.1765 14.9927 10.7841 14.6004 10.7841 14.1163C10.7841 13.6323 11.1765 13.2399 11.6606 13.2399C12.1446 13.2399 12.537 13.6323 12.537 14.1163C12.537 14.6004 12.1446 14.9927 11.6606 14.9927Z" fill="white"/>
<path id="Vector 2" d="M15.9332 19.3202C15.6045 20.6348 15.5278 21.4674 17.193 21.073C18.8583 20.6786 16.2618 18.0055 15.9332 19.3202Z" fill="white" stroke="white" stroke-width="2"/>
<path id="Vector 3" d="M24.7574 19.3202C25.086 20.6348 25.1627 21.4674 23.4975 21.073C21.8323 20.6786 24.4287 18.0055 24.7574 19.3202Z" fill="white" stroke="white" stroke-width="2"/>
<path id="Vector 4" d="M21.0274 1.79143C21.5971 2.22965 19.9867 3.87297 19.1102 4.63985C24.095 2.50353 22.5064 3.76342 23.8211 4.20164C25.1357 4.63986 25.3001 11.8705 24.7523 12.5826C24.2045 13.2947 15.714 11.0488 15.1663 6.77616C14.6185 2.50353 20.3153 1.24366 21.0274 1.79143Z" fill="white" stroke="white" stroke-width="2"/>
<path id="Vector 6" d="M9.79817 7.26919C9.19562 5.4798 7.12504 2.43783 3.66311 4.5851C0.201187 6.73237 3.46226 10.2637 5.52554 11.7609L8.37396 8.74816C7.84445 7.67087 6.40198 5.69158 4.86821 6.39274" stroke="white" stroke-width="2" stroke-linecap="round"/>
<path id="Vector 7" d="M30.3943 7.26919C30.9969 5.4798 33.0675 2.43783 36.5294 4.5851C39.9913 6.73237 36.7302 10.2637 34.667 11.7609L31.8185 8.74816C32.3481 7.67087 33.7905 5.69158 35.3243 6.39274" stroke="white" stroke-width="2" stroke-linecap="round"/>
</g>
</svg>
